<svg xmlns="http://www.w3.org/2000/svg" xmlns:xlink="http://www.w3.org/1999/xlink" viewBox="0 0 512 512"><defs><linearGradient id="linear-gradient" x1="0.2" y1="222.65" x2="445.1" y2="222.65" gradientUnits="userSpaceOnUse"><stop offset="0" stop-color="#fff"/><stop offset="1" stop-color="#d0d3d4"/></linearGradient><linearGradient id="linear-gradient-2" x1="11.32" y1="222.65" x2="433.97" y2="222.65" gradientUnits="userSpaceOnUse"><stop offset="0" stop-color="#d0d3d4"/><stop offset="1" stop-color="#fff"/></linearGradient></defs><title>dribbbble-other</title><g style="isolation:isolate"><g id="Layer_1" data-name="Layer 1"><g style="mix-blend-mode:multiply"><path d="M289.35,511.8C166.69,511.8,66.9,412,66.9,289.35S166.69,66.9,289.35,66.9,511.8,166.69,511.8,289.35,412,511.8,289.35,511.8Z" fill="#fff" opacity="0"/><path d="M286.18,508.49c-122.59,0-222.32-99.73-222.32-222.32S163.59,63.86,286.18,63.86s222.32,99.73,222.32,222.32S408.76,508.49,286.18,508.49Z" fill="#f9f9f9" opacity="0.05"/><path d="M283,505.19C160.49,505.19,60.81,405.51,60.81,283S160.49,60.81,283,60.81,505.19,160.49,505.19,283,405.51,505.19,283,505.19Z" fill="#f3f3f3" opacity="0.1"/><path d="M279.82,501.88c-122.44,0-222.05-99.61-222.05-222.05S157.38,57.77,279.82,57.77s222.05,99.61,222.05,222.05S402.26,501.88,279.82,501.88Z" fill="#ededee" opacity="0.14"/><path d="M276.65,498.57C154.28,498.57,54.73,399,54.73,276.65S154.28,54.73,276.65,54.73s221.92,99.55,221.92,221.92S399,498.57,276.65,498.57Z" fill="#e7e7e8" opacity="0.19"/><path d="M273.47,495.26c-122.29,0-221.79-99.49-221.79-221.79S151.18,51.68,273.47,51.68s221.79,99.49,221.79,221.79S395.76,495.26,273.47,495.26Z" fill="#e1e1e2" opacity="0.24"/><path d="M270.29,492C148.07,492,48.64,392.52,48.64,270.29S148.07,48.64,270.29,48.64,492,148.07,492,270.29,392.51,492,270.29,492Z" fill="#dbdbdc" opacity="0.29"/><path d="M267.12,488.64C145,488.64,45.59,389.27,45.59,267.12S145,45.59,267.12,45.59,488.64,145,488.64,267.12,389.26,488.64,267.12,488.64Z" fill="#d5d5d6" opacity="0.33"/><path d="M263.94,485.33C141.87,485.33,42.55,386,42.55,263.94S141.87,42.55,263.94,42.55s221.39,99.32,221.39,221.39S386,485.33,263.94,485.33Z" fill="#cfcfd1" opacity="0.38"/><path d="M260.76,482c-122,0-221.26-99.26-221.26-221.26S138.76,39.51,260.76,39.51,482,138.76,482,260.76,382.76,482,260.76,482Z" fill="#c9c9cb" opacity="0.43"/><path d="M257.59,478.71c-121.93,0-221.13-99.2-221.13-221.13S135.66,36.46,257.59,36.46s221.13,99.2,221.13,221.13S379.52,478.71,257.59,478.71Z" fill="#c3c3c5" opacity="0.48"/><path d="M254.41,475.41c-121.86,0-221-99.14-221-221s99.14-221,221-221,221,99.14,221,221S376.27,475.41,254.41,475.41Z" fill="#bcbebf" opacity="0.52"/><path d="M251.24,472.1C129.45,472.1,30.37,373,30.37,251.24S129.45,30.37,251.24,30.37,472.1,129.45,472.1,251.24,373,472.1,251.24,472.1Z" fill="#b6b8b9" opacity="0.57"/><path d="M248.06,468.79c-121.71,0-220.73-99-220.73-220.73s99-220.73,220.73-220.73,220.73,99,220.73,220.73S369.77,468.79,248.06,468.79Z" fill="#b0b2b3" opacity="0.62"/><path d="M244.88,465.48c-121.64,0-220.6-99-220.6-220.6s99-220.6,220.6-220.6,220.6,99,220.6,220.6S366.52,465.48,244.88,465.48Z" fill="#aaacae" opacity="0.67"/><path d="M241.71,462.17c-121.56,0-220.46-98.9-220.46-220.46S120.14,21.24,241.71,21.24s220.46,98.9,220.46,220.46S363.27,462.17,241.71,462.17Z" fill="#a4a6a8" opacity="0.71"/><path d="M238.53,458.86C117,458.86,18.2,360,18.2,238.53S117,18.2,238.53,18.2,458.86,117,458.86,238.53,360,458.86,238.53,458.86Z" fill="#9ea0a2" opacity="0.76"/><path d="M235.35,455.55c-121.42,0-220.2-98.78-220.2-220.2s98.78-220.2,220.2-220.2,220.2,98.78,220.2,220.2S356.77,455.55,235.35,455.55Z" fill="#989a9c" opacity="0.81"/><path d="M232.18,452.24c-121.35,0-220.07-98.72-220.07-220.07S110.83,12.11,232.18,12.11s220.07,98.72,220.07,220.07S353.52,452.24,232.18,452.24Z" fill="#929496" opacity="0.86"/><path d="M229,448.93C107.73,448.93,9.06,350.27,9.06,229S107.73,9.07,229,9.07,448.93,107.73,448.93,229,350.27,448.93,229,448.93Z" fill="#8c8e91" opacity="0.9"/><path d="M225.82,445.63C104.62,445.63,6,347,6,225.82S104.62,6,225.82,6s219.8,98.6,219.8,219.8S347,445.63,225.82,445.63Z" fill="#86888b" opacity="0.95"/><path d="M222.65,442.32C101.52,442.32,3,343.77,3,222.65S101.52,3,222.65,3s219.67,98.54,219.67,219.67S343.77,442.32,222.65,442.32Z" fill="#808285"/></g><path d="M222.65,445.1C100,445.1.2,345.31.2,222.65S100,.2,222.65.2,445.1,100,445.1,222.65,345.3,445.1,222.65,445.1Z" fill="url(#linear-gradient)"/><path d="M222.65,434c-116.53,0-211.33-94.8-211.33-211.33S106.12,11.32,222.65,11.32,434,106.12,434,222.65,339.17,434,222.65,434Z" fill="url(#linear-gradient-2)"/><path d="M228.34,109.61c-65.55,0-118.88,53.27-118.88,118.73s53.33,118.73,118.88,118.73,118.89-53.26,118.89-118.73S293.89,109.61,228.34,109.61Zm78.22,56a99.69,99.69,0,0,1,22.19,61.16,247.86,247.86,0,0,0-46.46-4.49,187.72,187.72,0,0,0-22.9,1.33c-.66-1.59-1.31-3.19-2-4.79-2-4.74-4.19-9.45-6.44-14.08,35.15-14.48,52.1-34.58,55.61-39.13ZM228.34,128.2a100.08,100.08,0,0,1,66.17,24.91c-2.8,3.82-18,22.8-51.87,35.6a543.4,543.4,0,0,0-36.94-57.93,100.13,100.13,0,0,1,22.64-2.58Zm-43.14,9.73A649.54,649.54,0,0,1,222,195.15a380.24,380.24,0,0,1-90.78,12.09h-1a100.7,100.7,0,0,1,55-69.3ZM127.91,228.5c0-.83,0-1.65,0-2.48h2.64c12.46,0,55.73-1,100.31-14.26,2.71,5.29,5.28,10.66,7.68,16-1.13.32-2.24.65-3.34,1C185,245,157.44,287.95,153.19,295a99.82,99.82,0,0,1-25.29-66.46ZM228.34,328.8a100,100,0,0,1-61.26-20.88c2.87-5.62,23.7-43.12,78.71-62.26l.11,0A418.22,418.22,0,0,1,267.14,321a99.92,99.92,0,0,1-38.8,7.79Zm56.89-17.68A438.75,438.75,0,0,0,266,240.69a131.85,131.85,0,0,1,20.21-1.52,149.37,149.37,0,0,1,41.23,5.76,100.49,100.49,0,0,1-42.19,66.19Zm0,0" fill="#fff"/><path d="M220.75,98.22c-65.55,0-118.88,53.27-118.88,118.73s53.33,118.73,118.88,118.73S339.63,282.42,339.63,217,286.3,98.22,220.75,98.22Zm78.22,56a99.69,99.69,0,0,1,22.19,61.16,247.86,247.86,0,0,0-46.46-4.49,187.72,187.72,0,0,0-22.9,1.33c-.66-1.59-1.31-3.19-2-4.79-2-4.74-4.19-9.45-6.44-14.08,35.15-14.48,52.1-34.58,55.61-39.13Zm-78.22-37.45a100.08,100.08,0,0,1,66.17,24.91c-2.8,3.82-18,22.8-51.87,35.6a543.4,543.4,0,0,0-36.94-57.93,100.13,100.13,0,0,1,22.64-2.58Zm-43.14,9.73a649.54,649.54,0,0,1,36.75,57.21,380.24,380.24,0,0,1-90.78,12.09h-1a100.7,100.7,0,0,1,55-69.3Zm-57.29,90.57c0-.83,0-1.65,0-2.48H123c12.46,0,55.73-1,100.31-14.26,2.71,5.29,5.28,10.66,7.68,16-1.13.32-2.24.65-3.34,1-50.2,16.21-77.79,59.13-82,66.15a99.82,99.82,0,0,1-25.29-66.46Zm100.44,100.3a100,100,0,0,1-61.26-20.88c2.87-5.62,23.7-43.12,78.71-62.26l.11,0a418.22,418.22,0,0,1,21.24,75.4,99.92,99.92,0,0,1-38.8,7.79Zm56.89-17.68a438.75,438.75,0,0,0-19.25-70.43,131.85,131.85,0,0,1,20.21-1.52,149.37,149.37,0,0,1,41.23,5.76,100.49,100.49,0,0,1-42.19,66.19Zm0,0" fill="#404750"/><path d="M222.64,103.92c-65.55,0-118.88,53.27-118.88,118.73s53.33,118.73,118.88,118.73,118.89-53.26,118.89-118.73S288.2,103.92,222.64,103.92Zm78.22,56a99.69,99.69,0,0,1,22.19,61.16,247.86,247.86,0,0,0-46.46-4.49A187.72,187.72,0,0,0,253.7,218c-.66-1.59-1.31-3.19-2-4.79-2-4.74-4.19-9.45-6.44-14.08,35.15-14.48,52.1-34.58,55.61-39.13ZM222.64,122.5a100.08,100.08,0,0,1,66.17,24.91c-2.8,3.82-18,22.8-51.87,35.6A543.4,543.4,0,0,0,200,125.09a100.13,100.13,0,0,1,22.64-2.58Zm-43.14,9.73a649.54,649.54,0,0,1,36.75,57.21,380.24,380.24,0,0,1-90.78,12.09h-1a100.7,100.7,0,0,1,55-69.3Zm-57.29,90.57c0-.83,0-1.65,0-2.48h2.64c12.46,0,55.73-1,100.31-14.26,2.71,5.29,5.28,10.66,7.68,16-1.13.32-2.24.65-3.34,1-50.2,16.21-77.79,59.13-82,66.15a99.82,99.82,0,0,1-25.29-66.46ZM222.64,323.1a100,100,0,0,1-61.26-20.88c2.87-5.62,23.7-43.12,78.71-62.26l.11,0a418.22,418.22,0,0,1,21.24,75.4,99.92,99.92,0,0,1-38.8,7.79Zm56.89-17.68A438.75,438.75,0,0,0,260.28,235a131.85,131.85,0,0,1,20.21-1.52,149.37,149.37,0,0,1,41.23,5.76,100.49,100.49,0,0,1-42.19,66.19Zm0,0" fill="#82868d"/></g></g></svg>